<svg version="1.1" xmlns="http://www.w3.org/2000/svg" xmlns:xlink="http://www.w3.org/1999/xlink" width="240" height="135" viewBox="0,0,240,135"><g transform="translate(-120,-112.5)"><g data-paper-data="{&quot;isPaintingLayer&quot;:true}" fill-rule="nonzero" stroke-linejoin="miter" stroke-miterlimit="10" stroke-dasharray="" stroke-dashoffset="0" style="mix-blend-mode: normal"><path d="M120,247.5v-135h240v135z" fill="#005580" stroke="none" stroke-width="0" stroke-linecap="butt"/><path d="M297.16667,150.22222c0,-12.51845 10.14821,-22.66667 22.66667,-22.66667c12.51845,0 22.66667,10.14821 22.66667,22.66667c0,12.51845 -10.14821,22.66667 -22.66667,22.66667c-12.51845,0 -22.66667,-10.14821 -22.66667,-22.66667z" fill="#fff280" stroke="none" stroke-width="0" stroke-linecap="butt"/><path d="M316.23628,159.74763l3.2565,-1.3322" fill="#000000" stroke="#000000" stroke-width="2" stroke-linecap="round"/><path d="M308.31707,139.76458c0,-1.02188 0.8284,-1.85028 1.85028,-1.85028c1.02188,0 1.85028,0.8284 1.85028,1.85028c0,1.02188 -0.8284,1.85028 -1.85028,1.85028c-1.02188,0 -1.85028,-0.8284 -1.85028,-1.85028z" fill="#000000" stroke="none" stroke-width="0.5" stroke-linecap="butt"/><path d="M315.42216,140.20865c0,-1.02188 0.8284,-1.85028 1.85028,-1.85028c1.02188,0 1.85028,0.8284 1.85028,1.85028c0,1.02188 -0.8284,1.85028 -1.85028,1.85028c-1.02188,0 -1.85028,-0.8284 -1.85028,-1.85028z" fill="#000000" stroke="none" stroke-width="0.5" stroke-linecap="butt"/><path d="M206.5,183.33333h74" fill="none" stroke-opacity="0.50196" stroke="#ffffff" stroke-width="25" stroke-linecap="round"/><path d="M225.16667,166h114.33333" fill="none" stroke-opacity="0.50196" stroke="#ffffff" stroke-width="25" stroke-linecap="round"/><path d="M210.16666,133.55556h-51.33333" fill="none" stroke-opacity="0.50196" stroke="#ffffff" stroke-width="25" stroke-linecap="round"/><path d="M164.49999,215.55556h-28.33333" fill="none" stroke-opacity="0.50196" stroke="#ffffff" stroke-width="15" stroke-linecap="round"/><path d="M300.5,237.55555h27" fill="none" stroke-opacity="0.50196" stroke="#ffffff" stroke-width="15" stroke-linecap="round"/></g></g></svg>