<svg version="1.1" xmlns="http://www.w3.org/2000/svg" xmlns:xlink="http://www.w3.org/1999/xlink" width="240" height="135" viewBox="0,0,240,135"><g transform="translate(-120,-112.5)"><g data-paper-data="{&quot;isPaintingLayer&quot;:true}" fill-rule="nonzero" stroke-linejoin="miter" stroke-miterlimit="10" stroke-dasharray="" stroke-dashoffset="0" style="mix-blend-mode: normal"><path d="M120,247.5v-135h240v135z" fill="#00aaff" stroke="none" stroke-width="0" stroke-linecap="butt"/><path d="M127.16667,144.22222c0,-12.51845 10.14821,-22.66667 22.66667,-22.66667c12.51845,0 22.66667,10.14821 22.66667,22.66667c0,12.51845 -10.14821,22.66667 -22.66667,22.66667c-12.51845,0 -22.66667,-10.14821 -22.66667,-22.66667z" fill="#ffe600" stroke="none" stroke-width="0" stroke-linecap="butt"/><g data-paper-data="{&quot;index&quot;:null}" fill="#000000"><path d="M149.6651,161.41431l-3.35593,-1.37288" stroke="#000000" stroke-width="2" stroke-linecap="round"/><path d="M155.91933,142.72785c-1.05308,0 -1.90678,-0.8537 -1.90678,-1.90678c0,-1.05308 0.8537,-1.90678 1.90678,-1.90678c1.05308,0 1.90678,0.8537 1.90678,1.90678c0,1.05308 -0.8537,1.90678 -1.90678,1.90678z" stroke="none" stroke-width="0.5" stroke-linecap="butt"/><path d="M148.5973,143.18548c-1.05308,0 -1.90678,-0.8537 -1.90678,-1.90678c0,-1.05308 0.8537,-1.90678 1.90678,-1.90678c1.05308,0 1.90678,0.8537 1.90678,1.90678c0,1.05308 -0.8537,1.90678 -1.90678,1.90678z" stroke="none" stroke-width="0.5" stroke-linecap="butt"/></g><path d="M148.16667,164.33333h74" fill="none" stroke-opacity="0.50196" stroke="#ffffff" stroke-width="25" stroke-linecap="round"/><path d="M189.16667,183h114.33333" fill="none" stroke-opacity="0.50196" stroke="#ffffff" stroke-width="25" stroke-linecap="round"/><path d="M287.5,129.55556h51.33333" fill="none" stroke-opacity="0.50196" stroke="#ffffff" stroke-width="25" stroke-linecap="round"/><path d="M158.16666,213.88889h-28.33333" fill="none" stroke-opacity="0.50196" stroke="#ffffff" stroke-width="15" stroke-linecap="round"/><path d="M317.16667,237.22222h27" fill="none" stroke-opacity="0.50196" stroke="#ffffff" stroke-width="15" stroke-linecap="round"/></g></g></svg>